<svg xmlns="http://www.w3.org/2000/svg" width="1900" height="1110" viewBox="0 0 1900 1110">
  <defs>
    <style>
      .board-title { font: 700 32px -apple-system, BlinkMacSystemFont, "Segoe UI", sans-serif; fill: #f7f8f4; }
      .board-subtitle { font: 500 15px -apple-system, BlinkMacSystemFont, "Segoe UI", sans-serif; fill: #8e9aa1; }
      .screen-title { font: 700 24px -apple-system, BlinkMacSystemFont, "Segoe UI", sans-serif; fill: #111820; }
      .section-title { font: 700 16px -apple-system, BlinkMacSystemFont, "Segoe UI", sans-serif; fill: #111820; }
      .body { font: 500 14px -apple-system, BlinkMacSystemFont, "Segoe UI", sans-serif; fill: #27333a; }
      .body-bold { font: 700 14px -apple-system, BlinkMacSystemFont, "Segoe UI", sans-serif; fill: #111820; }
      .caption { font: 500 12px -apple-system, BlinkMacSystemFont, "Segoe UI", sans-serif; fill: #68757c; }
      .caption-bold { font: 700 12px -apple-system, BlinkMacSystemFont, "Segoe UI", sans-serif; fill: #27333a; }
      .metric { font: 750 28px -apple-system, BlinkMacSystemFont, "Segoe UI", sans-serif; fill: #111820; }
      .metric-light { font: 750 28px -apple-system, BlinkMacSystemFont, "Segoe UI", sans-serif; fill: #f7f8f4; }
      .button { font: 700 15px -apple-system, BlinkMacSystemFont, "Segoe UI", sans-serif; fill: #111820; }
      .button-light { font: 700 15px -apple-system, BlinkMacSystemFont, "Segoe UI", sans-serif; fill: #f7f8f4; }
      .tab { font: 600 10px -apple-system, BlinkMacSystemFont, "Segoe UI", sans-serif; fill: #78848a; }
      .tab-active { font: 700 10px -apple-system, BlinkMacSystemFont, "Segoe UI", sans-serif; fill: #111820; }
      .mono { font: 700 12px ui-monospace, SFMono-Regular, Menlo, monospace; fill: #46535a; letter-spacing: 0.5px; }
    </style>
    <filter id="phoneShadow" x="-20%" y="-15%" width="140%" height="150%">
      <feDropShadow dx="0" dy="20" stdDeviation="18" flood-color="#000000" flood-opacity="0.34"/>
    </filter>
    <clipPath id="screen1"><rect x="72" y="174" width="374" height="828" rx="42"/></clipPath>
    <clipPath id="screen2"><rect x="524" y="174" width="374" height="828" rx="42"/></clipPath>
    <clipPath id="screen3"><rect x="976" y="174" width="374" height="828" rx="42"/></clipPath>
    <clipPath id="screen4"><rect x="1428" y="174" width="374" height="828" rx="42"/></clipPath>
  </defs>

  <rect width="1900" height="1110" fill="#0b1013"/>
  <circle cx="1730" cy="-100" r="360" fill="#c9ff3d" opacity="0.08"/>
  <text x="64" y="66" class="board-title">HaulMate MVP</text>
  <text x="64" y="94" class="board-subtitle">Load-to-cash, designed for an owner-operator moving at highway speed</text>
  <rect x="1648" y="54" width="188" height="38" rx="19" fill="#151d21" stroke="#2a363c"/>
  <circle cx="1673" cy="73" r="6" fill="#c9ff3d"/>
  <text x="1690" y="78" class="board-subtitle" fill="#dbe1dc">iOS pilot concept 01</text>

  <!-- Phone shells -->
  <g filter="url(#phoneShadow)">
    <rect x="64" y="166" width="390" height="844" rx="50" fill="#030506" stroke="#263137" stroke-width="2"/>
    <rect x="516" y="166" width="390" height="844" rx="50" fill="#030506" stroke="#263137" stroke-width="2"/>
    <rect x="968" y="166" width="390" height="844" rx="50" fill="#030506" stroke="#263137" stroke-width="2"/>
    <rect x="1420" y="166" width="390" height="844" rx="50" fill="#030506" stroke="#263137" stroke-width="2"/>
  </g>

  <!-- Screen 1: Today -->
  <g clip-path="url(#screen1)">
    <rect x="72" y="174" width="374" height="828" fill="#f4f5f1"/>
    <rect x="72" y="174" width="374" height="260" fill="#111820"/>
    <text x="96" y="205" class="caption-bold" fill="#f7f8f4">9:41</text>
    <rect x="249" y="185" width="18" height="5" rx="2.5" fill="#f7f8f4" opacity="0.8"/>
    <path d="M274 190 h14" stroke="#f7f8f4" stroke-width="2" stroke-linecap="round"/>
    <rect x="297" y="184" width="22" height="10" rx="3" fill="none" stroke="#f7f8f4" stroke-width="1.5"/>
    <rect x="320" y="187" width="2" height="4" rx="1" fill="#f7f8f4"/>
    <rect x="299" y="186" width="16" height="6" rx="1" fill="#c9ff3d"/>
    <circle cx="411" cy="235" r="18" fill="#263137"/>
    <text x="405" y="241" class="body-bold" fill="#f7f8f4">JW</text>
    <text x="96" y="235" class="caption" fill="#aeb8bd">FRIDAY, JUNE 20</text>
    <text x="96" y="268" class="screen-title" fill="#f7f8f4">Good morning, Jerel.</text>
    <text x="96" y="298" class="caption" fill="#aeb8bd">Estimated profit this month</text>
    <text x="96" y="337" class="metric-light">$4,820</text>
    <rect x="220" y="311" width="76" height="26" rx="13" fill="#c9ff3d"/>
    <text x="234" y="329" class="caption-bold" fill="#111820">24.6% margin</text>
    <text x="96" y="376" class="caption" fill="#aeb8bd">$8,260 gross</text>
    <circle cx="201" cy="372" r="2" fill="#637178"/>
    <text x="212" y="376" class="caption" fill="#aeb8bd">3 active loads</text>

    <text x="96" y="466" class="section-title">Up next</text>
    <rect x="96" y="482" width="326" height="202" rx="22" fill="#ffffff" stroke="#dfe3dd"/>
    <rect x="112" y="500" width="82" height="24" rx="12" fill="#e7f7ec"/>
    <circle cx="126" cy="512" r="4" fill="#228b4d"/>
    <text x="137" y="516" class="caption-bold" fill="#1d7040">ACCEPTED</text>
    <text x="112" y="554" class="body-bold">Detroit, MI</text>
    <path d="M205 550 h48 m-7 -6 7 6 -7 6" fill="none" stroke="#7c898f" stroke-width="1.8" stroke-linecap="round" stroke-linejoin="round"/>
    <text x="269" y="554" class="body-bold">Columbus, OH</text>
    <text x="112" y="579" class="caption">Pickup today, 2:30 PM</text>
    <text x="112" y="603" class="mono">HM-1042  ·  NORTHLINE</text>
    <rect x="112" y="624" width="294" height="44" rx="14" fill="#c9ff3d"/>
    <text x="205" y="651" class="button">Start route</text>

    <text x="96" y="724" class="section-title">Needs attention</text>
    <rect x="96" y="740" width="326" height="86" rx="18" fill="#fff8e8" stroke="#f0ddb0"/>
    <circle cx="122" cy="769" r="11" fill="#f4a826"/>
    <text x="118" y="774" class="body-bold" fill="#ffffff">!</text>
    <text x="144" y="768" class="body-bold">Invoice HM-1038 is ready</text>
    <text x="144" y="791" class="caption">Delivered yesterday · $2,590 due</text>
    <text x="144" y="813" class="caption-bold" fill="#9a6413">Review packet</text>

    <rect x="72" y="918" width="374" height="84" fill="#ffffff"/>
    <line x1="72" y1="918" x2="446" y2="918" stroke="#dde2dc"/>
    <g transform="translate(119 939)">
      <rect x="-9" y="-3" width="18" height="18" rx="5" fill="#111820"/>
      <path d="M-4 6 h8 M0 2 v8" stroke="#c9ff3d" stroke-width="1.7" stroke-linecap="round"/>
      <text x="-14" y="38" class="tab-active">Today</text>
    </g>
    <g transform="translate(207 939)">
      <path d="M-9 1 h18 v14 h-18 z M-4 -3 h8 v4" fill="none" stroke="#78848a" stroke-width="1.8"/>
      <text x="-14" y="38" class="tab">Loads</text>
    </g>
    <g transform="translate(300 939)">
      <rect x="-8" y="-3" width="16" height="19" rx="2" fill="none" stroke="#78848a" stroke-width="1.8"/>
      <path d="M-4 2 h8 M-4 7 h8" stroke="#78848a" stroke-width="1.5"/>
      <text x="-25" y="38" class="tab">Documents</text>
    </g>
    <g transform="translate(395 939)">
      <circle cx="0" cy="6" r="8" fill="none" stroke="#78848a" stroke-width="1.8"/>
      <circle cx="0" cy="6" r="2.5" fill="#78848a"/>
      <text x="-19" y="38" class="tab">Settings</text>
    </g>
  </g>

  <!-- Screen 2: Evaluate Load -->
  <g clip-path="url(#screen2)">
    <rect x="524" y="174" width="374" height="828" fill="#f4f5f1"/>
    <text x="548" y="205" class="caption-bold">9:41</text>
    <rect x="749" y="185" width="18" height="5" rx="2.5" fill="#111820" opacity="0.75"/>
    <path d="M774 190 h14" stroke="#111820" stroke-width="2" stroke-linecap="round"/>
    <rect x="797" y="184" width="22" height="10" rx="3" fill="none" stroke="#111820" stroke-width="1.5"/>
    <rect x="799" y="186" width="16" height="6" rx="1" fill="#111820"/>
    <path d="M551 240 l-8 8 8 8 M544 248 h14" fill="none" stroke="#111820" stroke-width="2" stroke-linecap="round" stroke-linejoin="round"/>
    <text x="578" y="255" class="screen-title">Evaluate load</text>
    <rect x="548" y="280" width="326" height="112" rx="20" fill="#ffffff" stroke="#dfe3dd"/>
    <text x="568" y="308" class="caption">BROKER</text>
    <text x="568" y="333" class="body-bold">Northline Logistics</text>
    <text x="568" y="364" class="body-bold">Detroit, MI</text>
    <path d="M663 360 h52 m-7 -6 7 6 -7 6" fill="none" stroke="#7c898f" stroke-width="1.8" stroke-linecap="round" stroke-linejoin="round"/>
    <text x="730" y="364" class="body-bold">Atlanta, GA</text>
    <text x="568" y="382" class="caption">742 loaded + 18 deadhead miles</text>

    <rect x="548" y="408" width="326" height="218" rx="22" fill="#111820"/>
    <text x="568" y="438" class="caption" fill="#aeb8bd">TOTAL PAY</text>
    <text x="568" y="476" class="metric-light">$2,450</text>
    <rect x="763" y="430" width="91" height="27" rx="13.5" fill="#c9ff3d"/>
    <text x="782" y="448" class="caption-bold" fill="#111820">GOOD LOAD</text>
    <line x1="568" y1="493" x2="854" y2="493" stroke="#344047"/>
    <text x="568" y="523" class="caption" fill="#aeb8bd">EST. COST</text>
    <text x="568" y="548" class="body-bold" fill="#f7f8f4">$1,273</text>
    <text x="682" y="523" class="caption" fill="#aeb8bd">EST. PROFIT</text>
    <text x="682" y="548" class="body-bold" fill="#c9ff3d">$1,177</text>
    <text x="796" y="523" class="caption" fill="#aeb8bd">PER MILE</text>
    <text x="796" y="548" class="body-bold" fill="#f7f8f4">$3.22</text>
    <line x1="568" y1="566" x2="854" y2="566" stroke="#344047"/>
    <text x="568" y="593" class="caption" fill="#aeb8bd">Estimated margin</text>
    <rect x="688" y="584" width="133" height="8" rx="4" fill="#344047"/>
    <rect x="688" y="584" width="98" height="8" rx="4" fill="#c9ff3d"/>
    <text x="830" y="593" class="caption-bold" fill="#f7f8f4">48%</text>

    <text x="548" y="665" class="section-title">Cost breakdown</text>
    <rect x="548" y="681" width="326" height="132" rx="18" fill="#ffffff" stroke="#dfe3dd"/>
    <circle cx="570" cy="709" r="5" fill="#495a63"/>
    <text x="586" y="714" class="body">Fuel</text>
    <text x="822" y="714" class="body-bold">$680</text>
    <circle cx="570" cy="743" r="5" fill="#839098"/>
    <text x="586" y="748" class="body">Maintenance + fixed</text>
    <text x="822" y="748" class="body-bold">$418</text>
    <circle cx="570" cy="777" r="5" fill="#b0b9bd"/>
    <text x="586" y="782" class="body">Fees + tolls</text>
    <text x="822" y="782" class="body-bold">$175</text>

    <rect x="548" y="838" width="326" height="48" rx="15" fill="#c9ff3d"/>
    <text x="650" y="868" class="button">Mark accepted</text>
    <rect x="548" y="898" width="326" height="44" rx="14" fill="#ffffff" stroke="#cbd2cd"/>
    <text x="671" y="926" class="button">Save draft</text>
    <text x="614" y="971" class="caption">Decision is recorded; booking stays with the broker.</text>
  </g>

  <!-- Screen 3: Active Load -->
  <g clip-path="url(#screen3)">
    <rect x="976" y="174" width="374" height="828" fill="#f4f5f1"/>
    <rect x="976" y="174" width="374" height="296" fill="#111820"/>
    <text x="1000" y="205" class="caption-bold" fill="#f7f8f4">9:41</text>
    <rect x="1201" y="185" width="18" height="5" rx="2.5" fill="#f7f8f4" opacity="0.8"/>
    <path d="M1226 190 h14" stroke="#f7f8f4" stroke-width="2" stroke-linecap="round"/>
    <rect x="1249" y="184" width="22" height="10" rx="3" fill="none" stroke="#f7f8f4" stroke-width="1.5"/>
    <rect x="1251" y="186" width="16" height="6" rx="1" fill="#c9ff3d"/>
    <path d="M1003 240 l-8 8 8 8 M996 248 h14" fill="none" stroke="#f7f8f4" stroke-width="2" stroke-linecap="round" stroke-linejoin="round"/>
    <text x="1030" y="255" class="screen-title" fill="#f7f8f4">Active load</text>
    <rect x="1261" y="231" width="65" height="34" rx="17" fill="#263137"/>
    <text x="1275" y="253" class="caption-bold" fill="#f7f8f4">Share</text>
    <rect x="1000" y="286" width="160" height="26" rx="13" fill="#c9ff3d"/>
    <circle cx="1016" cy="299" r="4" fill="#111820"/>
    <text x="1028" y="303" class="caption-bold" fill="#111820">EN ROUTE TO PICKUP</text>
    <text x="1000" y="345" class="section-title" fill="#f7f8f4">Northline Logistics</text>
    <text x="1000" y="372" class="caption" fill="#aeb8bd">HM-1042 · Pickup 2:30–3:00 PM</text>
    <text x="1000" y="407" class="caption" fill="#aeb8bd">Published ETA</text>
    <text x="1000" y="443" class="metric-light">2:18 PM</text>
    <rect x="1182" y="415" width="144" height="28" rx="14" fill="#263137"/>
    <circle cx="1198" cy="429" r="5" fill="#52ca7b"/>
    <text x="1210" y="433" class="caption-bold" fill="#dbe1dc">Broker link active</text>

    <rect x="1000" y="494" width="326" height="178" rx="22" fill="#ffffff" stroke="#dfe3dd"/>
    <text x="1020" y="524" class="caption">PICKUP</text>
    <text x="1020" y="551" class="body-bold">Detroit Produce Terminal</text>
    <text x="1020" y="574" class="body">2500 Market St, Detroit, MI</text>
    <rect x="1020" y="594" width="286" height="58" rx="16" fill="#eef1ec"/>
    <circle cx="1042" cy="623" r="11" fill="#ffffff" stroke="#9aa5a9"/>
    <circle cx="1042" cy="623" r="4" fill="#228b4d"/>
    <text x="1062" y="618" class="caption">On time</text>
    <text x="1062" y="637" class="caption-bold">22 min · 14 miles away</text>
    <text x="1245" y="628" class="caption-bold" fill="#1d7040">Navigate</text>

    <rect x="1000" y="692" width="326" height="52" rx="16" fill="#c9ff3d"/>
    <text x="1090" y="724" class="button">Arrived at pickup</text>
    <text x="1000" y="781" class="section-title">Load checklist</text>
    <rect x="1000" y="797" width="326" height="122" rx="18" fill="#ffffff" stroke="#dfe3dd"/>
    <circle cx="1023" cy="827" r="10" fill="#228b4d"/>
    <path d="M1018 827 l4 4 7 -8" fill="none" stroke="#ffffff" stroke-width="2" stroke-linecap="round" stroke-linejoin="round"/>
    <text x="1043" y="832" class="body">Rate confirmation</text>
    <text x="1258" y="832" class="caption">Synced</text>
    <circle cx="1023" cy="865" r="10" fill="#ffffff" stroke="#aab4b8" stroke-width="1.5"/>
    <text x="1043" y="870" class="body">Bill of lading</text>
    <text x="1224" y="870" class="caption">After pickup</text>
    <circle cx="1023" cy="903" r="10" fill="#ffffff" stroke="#aab4b8" stroke-width="1.5"/>
    <text x="1043" y="908" class="body">Arrival evidence</text>
    <text x="1231" y="908" class="caption">Tap arrived</text>
    <rect x="1000" y="940" width="326" height="36" rx="12" fill="#e7f7ec"/>
    <circle cx="1020" cy="958" r="5" fill="#228b4d"/>
    <text x="1034" y="963" class="caption-bold" fill="#1d7040">Ready offline · Last synced just now</text>
  </g>

  <!-- Screen 4: Invoice Ready -->
  <g clip-path="url(#screen4)">
    <rect x="1428" y="174" width="374" height="828" fill="#f4f5f1"/>
    <text x="1452" y="205" class="caption-bold">9:41</text>
    <rect x="1653" y="185" width="18" height="5" rx="2.5" fill="#111820" opacity="0.75"/>
    <path d="M1678 190 h14" stroke="#111820" stroke-width="2" stroke-linecap="round"/>
    <rect x="1701" y="184" width="22" height="10" rx="3" fill="none" stroke="#111820" stroke-width="1.5"/>
    <rect x="1703" y="186" width="16" height="6" rx="1" fill="#111820"/>
    <path d="M1455 240 l-8 8 8 8 M1448 248 h14" fill="none" stroke="#111820" stroke-width="2" stroke-linecap="round" stroke-linejoin="round"/>
    <text x="1482" y="255" class="screen-title">Invoice ready</text>
    <rect x="1452" y="286" width="326" height="148" rx="22" fill="#111820"/>
    <rect x="1472" y="306" width="92" height="26" rx="13" fill="#e7f7ec"/>
    <circle cx="1487" cy="319" r="4" fill="#228b4d"/>
    <text x="1498" y="323" class="caption-bold" fill="#1d7040">DELIVERED</text>
    <text x="1472" y="365" class="metric-light">$2,590</text>
    <text x="1472" y="391" class="caption" fill="#aeb8bd">Total invoice · HM-1042</text>
    <rect x="1641" y="349" width="117" height="46" rx="15" fill="#263137"/>
    <text x="1655" y="369" class="caption" fill="#aeb8bd">DUE DATE</text>
    <text x="1655" y="387" class="caption-bold" fill="#f7f8f4">July 20</text>
    <rect x="1472" y="410" width="286" height="5" rx="2.5" fill="#344047"/>
    <rect x="1472" y="410" width="286" height="5" rx="2.5" fill="#c9ff3d"/>

    <text x="1452" y="474" class="section-title">Packet complete</text>
    <text x="1737" y="474" class="caption-bold" fill="#1d7040">4 of 4</text>
    <rect x="1452" y="490" width="326" height="180" rx="18" fill="#ffffff" stroke="#dfe3dd"/>
    <g>
      <circle cx="1476" cy="522" r="10" fill="#228b4d"/>
      <path d="M1471 522 l4 4 7 -8" fill="none" stroke="#ffffff" stroke-width="2" stroke-linecap="round" stroke-linejoin="round"/>
      <text x="1496" y="527" class="body">Rate confirmation</text>
      <text x="1722" y="527" class="caption">PDF</text>
    </g>
    <line x1="1472" y1="544" x2="1758" y2="544" stroke="#e7eae5"/>
    <g>
      <circle cx="1476" cy="566" r="10" fill="#228b4d"/>
      <path d="M1471 566 l4 4 7 -8" fill="none" stroke="#ffffff" stroke-width="2" stroke-linecap="round" stroke-linejoin="round"/>
      <text x="1496" y="571" class="body">Signed BOL</text>
      <text x="1709" y="571" class="caption">2 pages</text>
    </g>
    <line x1="1472" y1="588" x2="1758" y2="588" stroke="#e7eae5"/>
    <g>
      <circle cx="1476" cy="610" r="10" fill="#228b4d"/>
      <path d="M1471 610 l4 4 7 -8" fill="none" stroke="#ffffff" stroke-width="2" stroke-linecap="round" stroke-linejoin="round"/>
      <text x="1496" y="615" class="body">Proof of delivery</text>
      <text x="1713" y="615" class="caption">Photo</text>
    </g>
    <line x1="1472" y1="632" x2="1758" y2="632" stroke="#e7eae5"/>
    <g>
      <circle cx="1476" cy="654" r="10" fill="#228b4d"/>
      <path d="M1471 654 l4 4 7 -8" fill="none" stroke="#ffffff" stroke-width="2" stroke-linecap="round" stroke-linejoin="round"/>
      <text x="1496" y="659" class="body">Detention evidence</text>
      <text x="1709" y="659" class="caption">3 items</text>
    </g>

    <text x="1452" y="710" class="section-title">Charges</text>
    <rect x="1452" y="726" width="326" height="132" rx="18" fill="#ffffff" stroke="#dfe3dd"/>
    <text x="1472" y="755" class="body">Line haul</text>
    <text x="1713" y="755" class="body-bold">$2,250</text>
    <text x="1472" y="786" class="body">Fuel surcharge</text>
    <text x="1725" y="786" class="body-bold">$200</text>
    <text x="1472" y="817" class="body">Detention · 1 hr</text>
    <text x="1725" y="817" class="body-bold">$140</text>
    <line x1="1472" y1="834" x2="1758" y2="834" stroke="#dfe3dd"/>
    <text x="1472" y="852" class="caption-bold">TOTAL DUE</text>
    <text x="1708" y="852" class="section-title">$2,590</text>

    <rect x="1452" y="882" width="326" height="50" rx="16" fill="#c9ff3d"/>
    <text x="1534" y="913" class="button">Generate invoice PDF</text>
    <rect x="1452" y="944" width="326" height="44" rx="14" fill="#ffffff" stroke="#cbd2cd"/>
    <text x="1564" y="972" class="button">Share packet</text>
  </g>

  <!-- Device camera cutouts and labels -->
  <g fill="#030506">
    <rect x="218" y="182" width="82" height="24" rx="12"/>
    <rect x="670" y="182" width="82" height="24" rx="12"/>
    <rect x="1122" y="182" width="82" height="24" rx="12"/>
    <rect x="1574" y="182" width="82" height="24" rx="12"/>
  </g>
  <text x="221" y="1055" class="board-subtitle" text-anchor="middle">01  TODAY</text>
  <text x="673" y="1055" class="board-subtitle" text-anchor="middle">02  EVALUATE LOAD</text>
  <text x="1125" y="1055" class="board-subtitle" text-anchor="middle">03  ACTIVE LOAD</text>
  <text x="1577" y="1055" class="board-subtitle" text-anchor="middle">04  INVOICE READY</text>
  <text x="64" y="1090" class="board-subtitle">Dark road-slate · signal lime · high-contrast daylight surfaces · 390 × 844 pt</text>
</svg>
